<?xml version="1.0" encoding="utf-8"?>
<!-- Generator: Adobe Illustrator 25.0.1, SVG Export Plug-In . SVG Version: 6.00 Build 0)  -->
<svg version="1.1" id="Layer_1" xmlns="http://www.w3.org/2000/svg" xmlns:xlink="http://www.w3.org/1999/xlink" x="0px" y="0px"
	 viewBox="0 0 791.1 538" style="enable-background:new 0 0 791.1 538;" xml:space="preserve">
<style type="text/css">
	.st0{fill:#00B4A2;}
	.st1{fill:#FB9F35;}
	.st2{fill:#3F3F3F;}
	.st3{fill:#23A698;}
	.st4{fill:#FBA744;}
</style>
<g>
	<g>
		<path class="st0" d="M78.8,392.1l-20.4,27.1h-2.3L36.2,392v45.5H24.4V375H38l19.6,26.9L77.1,375h13.5v62.5H78.8V392.1z"/>
		<path class="st0" d="M136.7,393.4h10.4v44h-10.3l-0.5-6.4c-2.5,5.2-9.4,7.7-14.3,7.8c-13,0.1-22.7-7.9-22.7-23.4
			c0-15.2,10.1-23.1,22.9-23c5.9,0,11.5,2.8,14,7.1L136.7,393.4z M110.2,415.3c0,8.4,5.8,13.4,13,13.4c17.1,0,17.1-26.7,0-26.7
			C116,402,110.2,407,110.2,415.3z"/>
		<path class="st0" d="M166.9,375v36.1l14.8-17.7h13v0.6l-17.9,20.1l20.4,22.5v0.8h-13.1l-17.2-19.9v19.9H156V375H166.9z"/>
		<path class="st0" d="M237.2,393.4h10.4v44h-10.3l-0.5-6.4c-2.5,5.2-9.4,7.7-14.3,7.8c-13,0.1-22.7-7.9-22.7-23.4
			c0-15.2,10.1-23.1,22.9-23c5.9,0,11.5,2.8,14,7.1L237.2,393.4z M210.8,415.3c0,8.4,5.8,13.4,13,13.4c17.1,0,17.1-26.7,0-26.7
			C216.6,402,210.8,407,210.8,415.3z"/>
		<path class="st0" d="M289.3,437.4v-23c0-6.7-3.7-11.8-10.6-11.8c-6.7,0-11.3,5.6-11.3,12.3v22.5h-10.8v-44.1h9.7l0.7,6
			c4.5-4.4,8.9-6.6,14.5-6.6c10.4,0,18.7,7.8,18.7,21.6v23.1H289.3z"/>
		<path class="st1" d="M318.9,393.4v23c0,6.7,3.7,11.8,10.6,11.8c6.7,0,11.3-5.6,11.3-12.3v-22.5h10.8v44.1h-9.7l-0.7-6
			c-4.6,4.5-8.8,6.6-14.9,6.6c-10.5,0-18.2-7.9-18.2-21.6v-23.1H318.9z"/>
		<path class="st1" d="M390.5,437.4v-23.6c0-5.8-3-11.1-9-11.1c-5.9,0-9.4,5.3-9.4,11.1v23.6h-10.9v-44.1h10.1l0.8,5.4
			c2.3-4.5,7.4-6.1,11.6-6.1c5.3,0,10.5,2.1,13,8.2c3.9-6.3,9-8,14.7-8c12.5,0,18.7,7.7,18.7,20.9v23.8h-10.9v-23.8
			c0-5.8-2.4-10.7-8.3-10.7s-9.6,5.1-9.6,10.9v23.6L390.5,437.4L390.5,437.4z"/>
		<path class="st1" d="M452.1,375v24.4c2.6-4.6,9.8-7.1,14.5-7.1c12.9,0,22.4,7.9,22.4,23c0,14.5-9.7,23-22.7,23
			c-5.4,0-10.8-1.8-14.2-7.1l-0.7,6.1h-10.2V375H452.1z M452.8,415.3c0,7.9,5.9,12.9,12.8,12.9c7,0,12.5-5.3,12.5-12.9
			c0-7.9-5.5-12.9-12.5-12.9C458.7,402.5,452.8,407.7,452.8,415.3z"/>
		<path class="st1" d="M506.3,419.3c0.7,5.4,5.4,9.4,13.1,9.4c4,0,9.3-1.5,11.8-4.1l7,6.9c-4.6,4.8-12.2,7.1-18.9,7.1
			c-15.2,0-24.2-9.4-24.2-23.5c0-13.4,9.1-23,23.4-23c14.7,0,23.9,9.1,22.2,27.2H506.3z M530.3,410.3c-0.7-5.7-5.2-8.6-11.4-8.6
			c-5.9,0-10.7,2.9-12.3,8.6H530.3z"/>
		<path class="st1" d="M559.2,393.4l0.8,5.1c3.4-5.4,7.9-6.2,12.4-6.2c4.6,0,8.9,1.8,11.3,4.2l-4.9,9.5c-2.2-1.9-4.3-2.9-7.9-2.9
			c-5.7,0-11,3-11,11.2v23.2H549v-44h10.2V393.4z"/>
		<path class="st2" d="M600.4,431.8c0,8.5-12.9,8.5-12.9,0C587.6,423.3,600.4,423.3,600.4,431.8z"/>
		<path class="st2" d="M645.9,431.8c-5.1,5-10.4,7-17,7c-12.8,0-23.4-7.7-23.4-23.3c0-15.6,10.6-23.3,23.4-23.3
			c6.3,0,11.1,1.8,15.9,6.5l-6.9,7.2c-2.6-2.3-5.8-3.5-8.8-3.5c-7.3,0-12.7,5.4-12.7,13c0,8.4,5.7,12.9,12.5,12.9c3.5,0,7-1,9.6-3.7
			L645.9,431.8z"/>
		<path class="st2" d="M695.4,415.4c0,12.7-8.7,22.9-22.9,22.9s-22.9-10.3-22.9-22.9s8.8-22.9,22.8-22.9S695.4,402.8,695.4,415.4z
			 M660.4,415.4c0,6.7,4,12.9,12,12.9s12-6.3,12-12.9s-4.6-13-12-13C664.6,402.4,660.4,408.8,660.4,415.4z"/>
		<path class="st2" d="M732.2,437.4v-23.6c0-5.8-3-11.1-9-11.1c-5.9,0-9.4,5.3-9.4,11.1v23.6h-10.9v-44.1H713l0.8,5.4
			c2.3-4.5,7.4-6.1,11.6-6.1c5.3,0,10.5,2.1,13,8.2c3.9-6.3,9-8,14.7-8c12.5,0,18.7,7.7,18.7,20.9v23.8h-10.9v-23.8
			c0-5.8-2.4-10.7-8.3-10.7c-5.9,0-9.6,5.1-9.6,10.9v23.6L732.2,437.4L732.2,437.4z"/>
	</g>
</g>
<g>
	<path class="st3" d="M444.8,152.5c1.3-4.9,2-10,2-15.3c0-4.5-0.5-8.9-1.5-13.2C446.5,133.5,446.3,143.2,444.8,152.5z"/>
</g>
<g>
	<g>
		<g>
			<path class="st4" d="M385.6,15.8c-62.8,0-118.5,58.3-118.3,121.5c0.1,28.9,10.7,56.3,28.2,79.2c1.6,2.2,3.3,4.3,5,6.4
				c3.8,4.7,10.8,5,15,0.8l0,0c3.7-3.7,3.9-9.5,0.7-13.5c-1.7-2.1-3.3-4.2-4.9-6.3c-14.5-18.9-22.7-41.5-22.8-65.4
				c-0.2-52.1,45.3-100.3,97-100.3c55.4,0,97.4,49.8,97.4,105.2c0,26.7-16.2,52-32.4,71.6c-17.5,21.2-37.4,40.6-58.5,58.4
				c-3.7,3.2-9.2,3.1-13,0c-12.4-10.5-24.5-21.6-36.1-33.3c-3.9-4-10.3-3.9-14.3,0l-0.3,0.3c-3.9,3.9-3.9,10.2-0.1,14.2
				c16,16.7,33.2,32.5,50.7,47.3c3.7,3.2,9.2,3.2,13,0c26-21.8,50.7-45.7,72.3-71.9c19.6-23.8,39.9-54.4,39.9-86.8
				C504.3,76.1,452.8,15.8,385.6,15.8z"/>
		</g>
	</g>
</g>
<path class="st0" d="M385.8,68.3c-38,0-68.9,30.8-68.9,68.9c0,15,4.8,28.8,12.9,40.1l-50.3,50.3l-24-24c-4.4-4.4-11.7-4.4-16.1,0
	c-4.4,4.4-4.4,11.7,0,16.1l24,24l-12.2,12.2L234,238.8c-4.4-4.4-11.7-4.4-16.1,0c-4.4,4.4-4.4,11.7,0,16.1L235,272l-7.7,7.7
	c-4.4,4.4-4.4,11.7,0,16.1s11.7,4.4,16.1,0L346,193.4c11.3,8,25,12.7,39.8,12.7c38,0,68.9-30.8,68.9-68.9S423.8,68.3,385.8,68.3z
	 M385.8,89.4c26.4,0,47.8,21.4,47.8,47.8S412.2,185,385.8,185c-8.4,0-16.2-2.2-23.1-6c-7.8-4.3-14.2-10.7-18.6-18.5
	c-3.9-6.9-6.1-14.9-6.1-23.4C338,110.8,359.4,89.4,385.8,89.4z"/>
<path class="st2" d="M411,147.8l-20.7-18.9c-2.3-2.1-5.8-2.1-8.1,0l-20.7,18.9c-2.4,2.2-6.2,2.1-8.5-0.4l0,0
	c-2.2-2.4-2.1-6.2,0.4-8.5l28.8-26.3c2.3-2.1,5.8-2.1,8.1,0l28.8,26.3c2.4,2.2,2.6,6,0.4,8.5l0,0C417.3,149.9,413.5,150.1,411,147.8
	z"/>
<path class="st2" d="M380.1,148.6L380.1,148.6c-2.1,0-3.9-1.8-3.9-3.9v-1.1c0-2.1,1.8-3.9,3.9-3.9l0,0c2.1,0,3.9,1.8,3.9,3.9v1.1
	C384,146.9,382.3,148.6,380.1,148.6z"/>
<path class="st2" d="M391.9,148.6L391.9,148.6c-2.1,0-3.9-1.8-3.9-3.9v-1.1c0-2.1,1.8-3.9,3.9-3.9l0,0c2.1,0,3.9,1.8,3.9,3.9v1.1
	C395.8,146.9,394,148.6,391.9,148.6z"/>
<path class="st2" d="M391.9,160.5L391.9,160.5c-2.1,0-3.9-1.8-3.9-3.9v-1.1c0-2.1,1.8-3.9,3.9-3.9l0,0c2.1,0,3.9,1.8,3.9,3.9v1.1
	C395.8,158.8,394,160.5,391.9,160.5z"/>
<path class="st2" d="M380.1,160.5L380.1,160.5c-2.1,0-3.9-1.8-3.9-3.9v-1.1c0-2.1,1.8-3.9,3.9-3.9l0,0c2.1,0,3.9,1.8,3.9,3.9v1.1
	C384,158.8,382.3,160.5,380.1,160.5z"/>
<g>
	<path d="M42.2,489.5l-14.9-22.8v-0.1h3.4l12.9,20.1l13-20.1h3.4v0.1l-14.9,22.8v15.3h-2.9V489.5z"/>
	<path d="M58.9,491.4c0-8.6,6.1-14,13.7-14s13.7,5.4,13.7,14s-6.1,13.8-13.7,13.8S58.9,500,58.9,491.4z M83.7,491.4
		c0-7-5-11.5-11.1-11.5c-6.1,0-11.1,4.5-11.1,11.5s5,11.2,11.1,11.2C78.7,502.6,83.7,498.4,83.7,491.4z"/>
	<path d="M115.6,504.8V500c-2.1,3.7-5.8,5.2-9.6,5.3c-7.2,0-12.2-4.4-12.2-11.9v-15.5h2.7v15.5c0,6.1,3.8,9.4,9.6,9.3
		c5.6-0.1,9.4-4.2,9.4-9.8v-15h2.7v27H115.6z"/>
	<path d="M129.3,477.9l0.1,4.8c1.7-3.7,5.5-5.1,8.9-5.1c2-0.1,4,0.5,5.8,1.6l-1.2,2.2c-1.4-0.9-3-1.3-4.6-1.3c-5,0.1-8.9,4.1-8.9,9
		v15.7h-2.7v-26.9H129.3z"/>
	<path d="M177.5,469.3h-13.8v-2.6h30.5v2.6h-13.8v35.5h-2.9V469.3z"/>
	<path d="M197.7,477.9l0.1,4.8c1.7-3.7,5.5-5.1,8.9-5.1c2-0.1,4,0.5,5.8,1.6l-1.2,2.2c-1.4-0.9-3-1.3-4.6-1.3c-5,0.1-8.9,4.1-8.9,9
		v15.7h-2.7v-26.9H197.7z"/>
	<path d="M240.3,504.8V500c-2.1,3.7-5.8,5.2-9.6,5.3c-7.2,0-12.2-4.4-12.2-11.9v-15.5h2.7v15.5c0,6.1,3.8,9.4,9.6,9.3
		c5.6-0.1,9.4-4.2,9.4-9.8v-15h2.7v27H240.3z"/>
	<path d="M270,482.8c-2.7-2.4-5.4-2.8-8.4-2.8c-4.2-0.1-8.2,1.5-8.1,5c0.1,3.6,4.8,4.3,8.2,4.9c4.8,0.8,11.4,1.6,11.1,7.9
		c-0.2,5.9-6.3,7.5-11.1,7.5c-4.7,0-9.4-1.8-11.8-5.4l2-1.7c2.2,3.2,6.3,4.6,9.9,4.6c3.3,0,8.2-0.9,8.4-5.1c0.1-3.9-4.4-4.6-8.8-5.3
		c-5.2-0.9-10.4-1.9-10.5-7.2c-0.1-5.3,5.2-7.6,10.7-7.5c3.9,0,7.4,1.1,10,3.6L270,482.8z"/>
	<path d="M286.4,469.8v8.1h9.2v2.2h-9.2v16.4c0,3.7,0.8,6.2,5,6.2c1.3,0,2.8-0.4,4.1-1.1l0.9,2.2c-1.7,0.8-3.4,1.4-5.1,1.4
		c-5.7,0-7.6-3.4-7.6-8.7v-16.4H278v-2.2h5.7V470L286.4,469.8z"/>
	<path d="M301.7,491.3c0-8.1,6.1-13.9,13.7-13.9c7.6,0,14.3,4.6,13.3,15.1h-24.2c0.5,6.3,5.4,10,11,10c3.5,0,7.7-1.4,9.7-4.1
		l1.9,1.5c-2.6,3.4-7.3,5.2-11.6,5.2C307.8,505.2,301.7,499.9,301.7,491.3z M326.3,490.3c-0.1-6.6-4.4-10.4-10.9-10.4
		c-5.6,0-10.4,3.8-11,10.4H326.3z"/>
	<path d="M362.9,466.7v38.1h-2.6v-5.9c-2.2,4.1-6.6,6.4-11.2,6.4c-7.5,0-13.5-5-13.5-13.9c0-8.9,6-13.9,13.5-13.9
		c4.6,0,9,2,11.2,6.3v-17.1H362.9z M338.2,491.3c0,7.5,5,11.3,11,11.3c6.3,0,11-4.6,11-11.3s-4.8-11.3-11-11.3
		C343.2,480,338.2,483.8,338.2,491.3z"/>
	<path d="M392.1,491.6v13.2h-2.9v-38.1c5.6,0,11.2,0,16.7,0c16.6,0,16.6,25,0,25H392.1z M392.1,469.4v19.6h13.8
		c12.7,0,12.7-19.6,0-19.6H392.1z"/>
	<path d="M427.2,477.9l0.1,4.8c1.7-3.7,5.5-5.1,8.9-5.1c2-0.1,4,0.5,5.8,1.6l-1.2,2.2c-1.4-0.9-3-1.3-4.6-1.3c-5,0.1-8.9,4.1-8.9,9
		v15.7h-2.7v-26.9H427.2z"/>
	<path d="M446.3,491.4c0-8.6,6.1-14,13.7-14c7.6,0,13.7,5.4,13.7,14s-6.1,13.8-13.7,13.8C452.4,505.2,446.3,500,446.3,491.4z
		 M471,491.4c0-7-5-11.5-11.1-11.5c-6.1,0-11.1,4.5-11.1,11.5s5,11.2,11.1,11.2C466.1,502.6,471,498.4,471,491.4z"/>
	<path d="M481.3,516v-38.1h2.6v6.4c2.1-4.1,6.4-6.8,11.7-6.8c7.3,0.3,13.1,5.2,13.1,13.8c0,9-6.1,13.9-13.7,13.9
		c-4.6,0-8.8-2.2-11.1-6.7V516H481.3z M506,491.3c0-7.6-4.9-11.3-11-11.3c-6.3,0-10.9,4.7-10.9,11.3s4.7,11.3,10.9,11.3
		C501.1,502.7,506,498.9,506,491.3z"/>
	<path d="M515.2,491.3c0-8.1,6.1-13.9,13.7-13.9c7.6,0,14.3,4.6,13.3,15.1h-24.2c0.5,6.3,5.4,10,11,10c3.5,0,7.7-1.4,9.7-4.1
		l1.9,1.5c-2.6,3.4-7.3,5.2-11.6,5.2C521.3,505.2,515.2,499.9,515.2,491.3z M539.8,490.3c-0.1-6.6-4.4-10.4-10.9-10.4
		c-5.6,0-10.4,3.8-11,10.4H539.8z"/>
	<path d="M553.1,477.9l0.1,4.8c1.7-3.7,5.5-5.1,8.9-5.1c2-0.1,4,0.5,5.8,1.6l-1.2,2.2c-1.4-0.9-3-1.3-4.6-1.3c-5,0.1-8.9,4.1-8.9,9
		v15.7h-2.7v-26.9H553.1z"/>
	<path d="M581.4,469.8v8.1h9.2v2.2h-9.2v16.4c0,3.7,0.8,6.2,5,6.2c1.3,0,2.8-0.4,4.1-1.1l0.9,2.2c-1.7,0.8-3.4,1.4-5.1,1.4
		c-5.7,0-7.6-3.4-7.6-8.7v-16.4H573v-2.2h5.7V470L581.4,469.8z"/>
	<path d="M621.8,477.9L605.4,516h-2.8l5-11.6l-10.8-26.6h2.9l6.3,15.9l3.2,7.8l3.1-7.8l6.8-15.9H621.8z"/>
	<path d="M670.2,474c-2.8-4.5-7.2-5.1-11.6-5.2c-4.5,0-11.6,1.6-11.6,7.7c0,4.8,5.2,6,11.7,7.2c7.4,1.4,15,2.7,15,11
		c-0.1,8.6-8.7,10.7-15.1,10.7c-5.9,0-12.7-2.5-15.6-8.3l2.6-1.3c2.3,4.6,8.3,6.9,13,6.9c4.7,0,12.2-1.3,12.2-8.1
		c0.1-5.7-6.3-7-12.5-8.2c-7-1.4-14.1-2.8-14.1-9.8c-0.2-8.1,8.2-10.6,14.5-10.6c5.4,0,10.2,0.9,13.9,6.5L670.2,474z"/>
	<path d="M680.9,491.4c0-8.6,6.1-14,13.7-14c7.6,0,13.7,5.4,13.7,14s-6.1,13.8-13.7,13.8C687,505.2,680.9,500,680.9,491.4z
		 M705.6,491.4c0-7-5-11.5-11.1-11.5c-6.1,0-11.1,4.5-11.1,11.5s5,11.2,11.1,11.2C700.7,502.6,705.6,498.4,705.6,491.4z"/>
	<path d="M737.6,504.8V500c-2.1,3.7-5.8,5.2-9.6,5.3c-7.2,0-12.2-4.4-12.2-11.9v-15.5h2.7v15.5c0,6.1,3.8,9.4,9.6,9.3
		c5.6-0.1,9.4-4.2,9.4-9.8v-15h2.7v27H737.6z"/>
	<path d="M772.1,516v-17.4c-2.3,4.5-6.5,6.7-11.1,6.7c-7.6,0-13.7-4.9-13.7-13.9c0-8.7,5.8-13.6,13.1-13.8c5.2,0,9.5,2.7,11.7,6.8
		v-6.4h2.6V516H772.1z M771.9,491.4c0-6.6-4.6-11.3-10.9-11.3c-6.1,0-11,3.7-11,11.3s4.9,11.4,11,11.4
		C767.2,502.7,771.9,498,771.9,491.4z"/>
</g>
</svg>
